<mxfile host="app.diagrams.net" agent="Mozilla/5.0 (Windows NT 10.0; Win64; x64) AppleWebKit/537.36 (KHTML, like Gecko) Chrome/127.0.0.0 Safari/537.36" version="24.7.7">
  <diagram name="Page-1" id="64c3da0e-402f-94eb-ee01-a36477274f13">
    <mxGraphModel dx="2100" dy="1114" grid="1" gridSize="10" guides="1" tooltips="1" connect="1" arrows="1" fold="1" page="1" pageScale="1" pageWidth="1169" pageHeight="826" background="none" math="0" shadow="0">
      <root>
        <mxCell id="0" />
        <mxCell id="1" parent="0" />
        <mxCell id="2" value="Dự án quản lý thu và chi tiền ủng hộ đồng bào miền trung" style="whiteSpace=wrap;rounded=1;shadow=1;fillColor=#10739E;strokeColor=none;fontColor=#FFFFFF;fontStyle=1;fontSize=24" parent="1" vertex="1">
          <mxGeometry x="1000" y="50" width="340" height="60" as="geometry" />
        </mxCell>
        <mxCell id="3" value="Quản lý thu minh bạch quỹ" style="whiteSpace=wrap;rounded=1;fillColor=#F2931E;strokeColor=none;shadow=1;fontColor=#FFFFFF;fontStyle=1;fontSize=14" parent="1" vertex="1">
          <mxGeometry x="540" y="189.9999999999998" width="140" height="60" as="geometry" />
        </mxCell>
        <mxCell id="4" value="Xác định nhu cầu và quản lý chi" style="whiteSpace=wrap;rounded=1;fillColor=#F2931E;strokeColor=none;shadow=1;fontColor=#FFFFFF;fontStyle=1;fontSize=14" parent="1" vertex="1">
          <mxGeometry x="1110" y="174.9999999999998" width="140" height="60" as="geometry" />
        </mxCell>
        <mxCell id="6" value="Theo dõi và đánh giá hiệu quả" style="whiteSpace=wrap;rounded=1;fillColor=#F2931E;strokeColor=none;shadow=1;fontColor=#FFFFFF;fontStyle=1;fontSize=14" parent="1" vertex="1">
          <mxGeometry x="1650" y="169.9999999999998" width="140" height="60" as="geometry" />
        </mxCell>
        <mxCell id="10" value="Xây dựng hệ thống ghi nhận thu quỹ" style="whiteSpace=wrap;rounded=1;fillColor=#12AAB5;strokeColor=none;shadow=1;fontColor=#FFFFFF;" parent="1" vertex="1">
          <mxGeometry x="460" y="320.0000000000001" width="120" height="60" as="geometry" />
        </mxCell>
        <mxCell id="12" value="Báo cáo công khai quỹ" style="whiteSpace=wrap;rounded=1;fillColor=#12AAB5;strokeColor=none;shadow=1;fontColor=#FFFFFF;" parent="1" vertex="1">
          <mxGeometry x="660" y="320.0000000000001" width="120" height="60" as="geometry" />
        </mxCell>
        <mxCell id="23" value="Thiết kế cơ sở dữ liệu ghi nhận các khoản thu" style="whiteSpace=wrap;rounded=1;fillColor=#999999;strokeColor=none;shadow=1;fontColor=#FFFFFF;fontStyle=0" parent="1" vertex="1">
          <mxGeometry x="459.99999999999994" y="420.0000000000001" width="120" height="60" as="geometry" />
        </mxCell>
        <mxCell id="24" value="Xây dựng giao diện ghi nhận thu quỹ" style="whiteSpace=wrap;rounded=1;fillColor=#999999;strokeColor=none;shadow=1;fontColor=#FFFFFF;fontStyle=0" parent="1" vertex="1">
          <mxGeometry x="460.0000000000001" y="500.0000000000001" width="120" height="60" as="geometry" />
        </mxCell>
        <mxCell id="25" value="Xác định quy trình thu và ghi nhận (gồm các biên lai)" style="whiteSpace=wrap;rounded=1;fillColor=#999999;strokeColor=none;shadow=1;fontColor=#FFFFFF;fontStyle=0" parent="1" vertex="1">
          <mxGeometry x="460.00000000000006" y="580.0000000000001" width="120" height="60" as="geometry" />
        </mxCell>
        <mxCell id="26" value="Đào tạo nhân sự về quy trình ghi nhận và kiểm tra khoản thu" style="whiteSpace=wrap;rounded=1;fillColor=#999999;strokeColor=none;shadow=1;fontColor=#FFFFFF;fontStyle=0" parent="1" vertex="1">
          <mxGeometry x="460.0000000000002" y="660.0000000000001" width="120" height="60" as="geometry" />
        </mxCell>
        <mxCell id="27" value="Thực hiện bảo mật thông tin các khoản thu" style="whiteSpace=wrap;rounded=1;fillColor=#999999;strokeColor=none;shadow=1;fontColor=#FFFFFF;fontStyle=0" parent="1" vertex="1">
          <mxGeometry x="460.00000000000034" y="740.0000000000001" width="120" height="60" as="geometry" />
        </mxCell>
        <mxCell id="38" value="Thiết kế mẫu báo cáo công khai" style="whiteSpace=wrap;rounded=1;fillColor=#999999;strokeColor=none;shadow=1;fontColor=#FFFFFF;fontStyle=0" parent="1" vertex="1">
          <mxGeometry x="659.9999999999995" y="420.0000000000001" width="120" height="60" as="geometry" />
        </mxCell>
        <mxCell id="39" value="Tạo hệ thống báo cáo định kỳ (theo tuần/tháng/quý)" style="whiteSpace=wrap;rounded=1;fillColor=#999999;strokeColor=none;shadow=1;fontColor=#FFFFFF;fontStyle=0" parent="1" vertex="1">
          <mxGeometry x="659.9999999999998" y="500.0000000000001" width="120" height="60" as="geometry" />
        </mxCell>
        <mxCell id="40" value="Xây dựng hệ thống thông báo và công bố công khai trên website" style="whiteSpace=wrap;rounded=1;fillColor=#999999;strokeColor=none;shadow=1;fontColor=#FFFFFF;fontStyle=0" parent="1" vertex="1">
          <mxGeometry x="659.9999999999998" y="580.0000000000001" width="120" height="60" as="geometry" />
        </mxCell>
        <mxCell id="41" value="Định kỳ cập nhật các khoản thu công khai" style="whiteSpace=wrap;rounded=1;fillColor=#999999;strokeColor=none;shadow=1;fontColor=#FFFFFF;fontStyle=0" parent="1" vertex="1">
          <mxGeometry x="659.9999999999999" y="660.0000000000001" width="120" height="60" as="geometry" />
        </mxCell>
        <mxCell id="42" value="Đảm bảo tính xác thực và toàn vẹn của thông tin báo cáo" style="whiteSpace=wrap;rounded=1;fillColor=#999999;strokeColor=none;shadow=1;fontColor=#FFFFFF;fontStyle=0" parent="1" vertex="1">
          <mxGeometry x="660" y="740.0000000000001" width="120" height="60" as="geometry" />
        </mxCell>
        <mxCell id="43" value="Khảo sát nhu cầu của đồng bào" style="whiteSpace=wrap;rounded=1;fillColor=#12AAB5;strokeColor=none;shadow=1;fontColor=#FFFFFF;" parent="1" vertex="1">
          <mxGeometry x="1019.9999999999998" y="305.0000000000001" width="120" height="60" as="geometry" />
        </mxCell>
        <mxCell id="44" value="Phân bổ chi tiêu hợp lý" style="whiteSpace=wrap;rounded=1;fillColor=#12AAB5;strokeColor=none;shadow=1;fontColor=#FFFFFF;" parent="1" vertex="1">
          <mxGeometry x="1219.9999999999998" y="305.0000000000001" width="120" height="60" as="geometry" />
        </mxCell>
        <mxCell id="45" value="Thiết lập đội ngũ khảo sát" style="whiteSpace=wrap;rounded=1;fillColor=#999999;strokeColor=none;shadow=1;fontColor=#FFFFFF;fontStyle=0" parent="1" vertex="1">
          <mxGeometry x="1019.9999999999998" y="405.0000000000001" width="120" height="60" as="geometry" />
        </mxCell>
        <mxCell id="46" value="Xây dựng bảng câu hỏi và tiêu chí đánh giá" style="whiteSpace=wrap;rounded=1;fillColor=#999999;strokeColor=none;shadow=1;fontColor=#FFFFFF;fontStyle=0" parent="1" vertex="1">
          <mxGeometry x="1019.9999999999999" y="485.0000000000001" width="120" height="60" as="geometry" />
        </mxCell>
        <mxCell id="47" value="Thu thập dữ liệu từ đồng bào" style="whiteSpace=wrap;rounded=1;fillColor=#999999;strokeColor=none;shadow=1;fontColor=#FFFFFF;fontStyle=0" parent="1" vertex="1">
          <mxGeometry x="1019.9999999999998" y="565.0000000000001" width="120" height="60" as="geometry" />
        </mxCell>
        <mxCell id="48" value="Phân tích dữ liệu và xác định nhu cầu cụ thể" style="whiteSpace=wrap;rounded=1;fillColor=#999999;strokeColor=none;shadow=1;fontColor=#FFFFFF;fontStyle=0" parent="1" vertex="1">
          <mxGeometry x="1020" y="645.0000000000001" width="120" height="60" as="geometry" />
        </mxCell>
        <mxCell id="49" value="Báo cáo kết quả khảo sát" style="whiteSpace=wrap;rounded=1;fillColor=#999999;strokeColor=none;shadow=1;fontColor=#FFFFFF;fontStyle=0" parent="1" vertex="1">
          <mxGeometry x="1020.0000000000001" y="725.0000000000001" width="120" height="60" as="geometry" />
        </mxCell>
        <mxCell id="50" value="Xác định các hạng mục cần chi tiêu" style="whiteSpace=wrap;rounded=1;fillColor=#999999;strokeColor=none;shadow=1;fontColor=#FFFFFF;fontStyle=0" parent="1" vertex="1">
          <mxGeometry x="1219.9999999999993" y="405.0000000000001" width="120" height="60" as="geometry" />
        </mxCell>
        <mxCell id="51" value="Lập kế hoạch phân bổ nguồn lực tài chính" style="whiteSpace=wrap;rounded=1;fillColor=#999999;strokeColor=none;shadow=1;fontColor=#FFFFFF;fontStyle=0" parent="1" vertex="1">
          <mxGeometry x="1219.9999999999995" y="485.0000000000001" width="120" height="60" as="geometry" />
        </mxCell>
        <mxCell id="52" value="Phê duyệt kế hoạch chi tiêu" style="whiteSpace=wrap;rounded=1;fillColor=#999999;strokeColor=none;shadow=1;fontColor=#FFFFFF;fontStyle=0" parent="1" vertex="1">
          <mxGeometry x="1219.9999999999995" y="565.0000000000001" width="120" height="60" as="geometry" />
        </mxCell>
        <mxCell id="53" value="Thực hiện chi tiêu theo kế hoạch" style="whiteSpace=wrap;rounded=1;fillColor=#999999;strokeColor=none;shadow=1;fontColor=#FFFFFF;fontStyle=0" parent="1" vertex="1">
          <mxGeometry x="1219.9999999999995" y="645.0000000000001" width="120" height="60" as="geometry" />
        </mxCell>
        <mxCell id="54" value="Giám sát và điều chỉnh kế hoạch chi tiêu (nếu cần)" style="whiteSpace=wrap;rounded=1;fillColor=#999999;strokeColor=none;shadow=1;fontColor=#FFFFFF;fontStyle=0" parent="1" vertex="1">
          <mxGeometry x="1219.9999999999998" y="725.0000000000001" width="120" height="60" as="geometry" />
        </mxCell>
        <mxCell id="103" value="" style="edgeStyle=elbowEdgeStyle;elbow=vertical;rounded=0;fontColor=#000000;endArrow=none;endFill=0;strokeWidth=8;strokeColor=#23445D;" parent="1" source="3" target="10" edge="1">
          <mxGeometry width="100" height="100" relative="1" as="geometry">
            <mxPoint x="410" y="310" as="sourcePoint" />
            <mxPoint x="510" y="210" as="targetPoint" />
          </mxGeometry>
        </mxCell>
        <mxCell id="104" value="" style="edgeStyle=elbowEdgeStyle;elbow=vertical;rounded=0;fontColor=#000000;endArrow=none;endFill=0;strokeWidth=8;strokeColor=#23445D;" parent="1" source="3" target="12" edge="1">
          <mxGeometry width="100" height="100" relative="1" as="geometry">
            <mxPoint x="750" y="310" as="sourcePoint" />
            <mxPoint x="850" y="210" as="targetPoint" />
          </mxGeometry>
        </mxCell>
        <mxCell id="105" value="" style="edgeStyle=elbowEdgeStyle;elbow=horizontal;rounded=0;fontColor=#000000;endArrow=none;endFill=0;strokeWidth=8;strokeColor=#23445D;" parent="1" source="10" target="23" edge="1">
          <mxGeometry width="100" height="100" relative="1" as="geometry">
            <mxPoint x="400" y="500" as="sourcePoint" />
            <mxPoint x="500" y="400" as="targetPoint" />
            <Array as="points">
              <mxPoint x="440" y="400" />
            </Array>
          </mxGeometry>
        </mxCell>
        <mxCell id="106" value="" style="edgeStyle=elbowEdgeStyle;elbow=horizontal;rounded=0;fontColor=#000000;endArrow=none;endFill=0;strokeWidth=8;strokeColor=#23445D;" parent="1" source="10" target="24" edge="1">
          <mxGeometry width="100" height="100" relative="1" as="geometry">
            <mxPoint x="470" y="360" as="sourcePoint" />
            <mxPoint x="470" y="460" as="targetPoint" />
            <Array as="points">
              <mxPoint x="440" y="420" />
            </Array>
          </mxGeometry>
        </mxCell>
        <mxCell id="107" value="" style="edgeStyle=elbowEdgeStyle;elbow=horizontal;rounded=0;fontColor=#000000;endArrow=none;endFill=0;strokeWidth=8;strokeColor=#23445D;" parent="1" source="10" target="27" edge="1">
          <mxGeometry width="100" height="100" relative="1" as="geometry">
            <mxPoint x="470" y="360" as="sourcePoint" />
            <mxPoint x="470" y="460" as="targetPoint" />
            <Array as="points">
              <mxPoint x="440" y="560" />
            </Array>
          </mxGeometry>
        </mxCell>
        <mxCell id="109" value="" style="edgeStyle=elbowEdgeStyle;elbow=horizontal;rounded=0;fontColor=#000000;endArrow=none;endFill=0;strokeWidth=8;strokeColor=#23445D;" parent="1" source="10" target="26" edge="1">
          <mxGeometry width="100" height="100" relative="1" as="geometry">
            <mxPoint x="490" y="380" as="sourcePoint" />
            <mxPoint x="490" y="480" as="targetPoint" />
            <Array as="points">
              <mxPoint x="440" y="430" />
            </Array>
          </mxGeometry>
        </mxCell>
        <mxCell id="110" value="" style="edgeStyle=elbowEdgeStyle;elbow=horizontal;rounded=0;fontColor=#000000;endArrow=none;endFill=0;strokeWidth=8;strokeColor=#23445D;" parent="1" source="10" target="25" edge="1">
          <mxGeometry width="100" height="100" relative="1" as="geometry">
            <mxPoint x="500" y="390" as="sourcePoint" />
            <mxPoint x="500" y="490" as="targetPoint" />
            <Array as="points">
              <mxPoint x="440" y="450" />
            </Array>
          </mxGeometry>
        </mxCell>
        <mxCell id="111" value="" style="edgeStyle=elbowEdgeStyle;elbow=horizontal;rounded=0;fontColor=#000000;endArrow=none;endFill=0;strokeWidth=8;strokeColor=#23445D;" parent="1" target="38" edge="1">
          <mxGeometry width="100" height="100" relative="1" as="geometry">
            <mxPoint x="650" y="350.0000000000004" as="sourcePoint" />
            <mxPoint x="650" y="450.0000000000004" as="targetPoint" />
            <Array as="points">
              <mxPoint x="640" y="400" />
            </Array>
          </mxGeometry>
        </mxCell>
        <mxCell id="112" value="" style="edgeStyle=elbowEdgeStyle;elbow=horizontal;rounded=0;fontColor=#000000;endArrow=none;endFill=0;strokeWidth=8;strokeColor=#23445D;" parent="1" source="12" target="39" edge="1">
          <mxGeometry width="100" height="100" relative="1" as="geometry">
            <mxPoint x="650" y="350.0000000000004" as="sourcePoint" />
            <mxPoint x="650" y="530.0000000000005" as="targetPoint" />
            <Array as="points">
              <mxPoint x="640" y="440" />
            </Array>
          </mxGeometry>
        </mxCell>
        <mxCell id="113" value="" style="edgeStyle=elbowEdgeStyle;elbow=horizontal;rounded=0;fontColor=#000000;endArrow=none;endFill=0;strokeWidth=8;strokeColor=#23445D;" parent="1" source="12" target="42" edge="1">
          <mxGeometry width="100" height="100" relative="1" as="geometry">
            <mxPoint x="650" y="350.0000000000004" as="sourcePoint" />
            <mxPoint x="650.0000000000005" y="770.0000000000003" as="targetPoint" />
            <Array as="points">
              <mxPoint x="640" y="560" />
            </Array>
          </mxGeometry>
        </mxCell>
        <mxCell id="114" value="" style="edgeStyle=elbowEdgeStyle;elbow=horizontal;rounded=0;fontColor=#000000;endArrow=none;endFill=0;strokeWidth=8;strokeColor=#23445D;" parent="1" source="12" target="41" edge="1">
          <mxGeometry width="100" height="100" relative="1" as="geometry">
            <mxPoint x="650" y="350.0000000000004" as="sourcePoint" />
            <mxPoint x="650.0000000000002" y="690.0000000000003" as="targetPoint" />
            <Array as="points">
              <mxPoint x="640" y="520" />
            </Array>
          </mxGeometry>
        </mxCell>
        <mxCell id="115" value="" style="edgeStyle=elbowEdgeStyle;elbow=horizontal;rounded=0;fontColor=#000000;endArrow=none;endFill=0;strokeWidth=8;strokeColor=#23445D;" parent="1" source="12" target="40" edge="1">
          <mxGeometry width="100" height="100" relative="1" as="geometry">
            <mxPoint x="650" y="350.0000000000004" as="sourcePoint" />
            <mxPoint x="650" y="610.0000000000003" as="targetPoint" />
            <Array as="points">
              <mxPoint x="640" y="480" />
            </Array>
          </mxGeometry>
        </mxCell>
        <mxCell id="116" value="" style="edgeStyle=elbowEdgeStyle;elbow=vertical;rounded=0;fontColor=#000000;endArrow=none;endFill=0;strokeWidth=8;strokeColor=#23445D;" parent="1" source="4" target="43" edge="1">
          <mxGeometry width="100" height="100" relative="1" as="geometry">
            <mxPoint x="820" y="244.99999999999977" as="sourcePoint" />
            <mxPoint x="720" y="315" as="targetPoint" />
          </mxGeometry>
        </mxCell>
        <mxCell id="117" value="" style="edgeStyle=elbowEdgeStyle;elbow=vertical;rounded=0;fontColor=#000000;endArrow=none;endFill=0;strokeWidth=8;strokeColor=#23445D;" parent="1" source="4" target="44" edge="1">
          <mxGeometry width="100" height="100" relative="1" as="geometry">
            <mxPoint x="820" y="244.99999999999977" as="sourcePoint" />
            <mxPoint x="920" y="315" as="targetPoint" />
          </mxGeometry>
        </mxCell>
        <mxCell id="118" value="" style="edgeStyle=elbowEdgeStyle;elbow=horizontal;rounded=0;fontColor=#000000;endArrow=none;endFill=0;strokeWidth=8;strokeColor=#23445D;" parent="1" source="43" target="45" edge="1">
          <mxGeometry width="100" height="100" relative="1" as="geometry">
            <mxPoint x="1000" y="335.00000000000045" as="sourcePoint" />
            <mxPoint x="1009.9999999999995" y="435" as="targetPoint" />
            <Array as="points">
              <mxPoint x="1000" y="385" />
            </Array>
          </mxGeometry>
        </mxCell>
        <mxCell id="119" value="" style="edgeStyle=elbowEdgeStyle;elbow=horizontal;rounded=0;fontColor=#000000;endArrow=none;endFill=0;strokeWidth=8;strokeColor=#23445D;" parent="1" source="43" target="46" edge="1">
          <mxGeometry width="100" height="100" relative="1" as="geometry">
            <mxPoint x="1010" y="335" as="sourcePoint" />
            <mxPoint x="1009.9999999999998" y="515" as="targetPoint" />
            <Array as="points">
              <mxPoint x="1000" y="425" />
            </Array>
          </mxGeometry>
        </mxCell>
        <mxCell id="120" value="" style="edgeStyle=elbowEdgeStyle;elbow=horizontal;rounded=0;fontColor=#000000;endArrow=none;endFill=0;strokeWidth=8;strokeColor=#23445D;" parent="1" source="43" target="49" edge="1">
          <mxGeometry width="100" height="100" relative="1" as="geometry">
            <mxPoint x="1010" y="335" as="sourcePoint" />
            <mxPoint x="1010" y="755" as="targetPoint" />
            <Array as="points">
              <mxPoint x="1000" y="555" />
            </Array>
          </mxGeometry>
        </mxCell>
        <mxCell id="121" value="" style="edgeStyle=elbowEdgeStyle;elbow=horizontal;rounded=0;fontColor=#000000;endArrow=none;endFill=0;strokeWidth=8;strokeColor=#23445D;" parent="1" source="43" target="48" edge="1">
          <mxGeometry width="100" height="100" relative="1" as="geometry">
            <mxPoint x="1010" y="335" as="sourcePoint" />
            <mxPoint x="1010" y="675" as="targetPoint" />
            <Array as="points">
              <mxPoint x="1000" y="505" />
            </Array>
          </mxGeometry>
        </mxCell>
        <mxCell id="122" value="" style="edgeStyle=elbowEdgeStyle;elbow=horizontal;rounded=0;fontColor=#000000;endArrow=none;endFill=0;strokeWidth=8;strokeColor=#23445D;" parent="1" source="43" target="47" edge="1">
          <mxGeometry width="100" height="100" relative="1" as="geometry">
            <mxPoint x="1010" y="335" as="sourcePoint" />
            <mxPoint x="1009.9999999999998" y="595" as="targetPoint" />
            <Array as="points">
              <mxPoint x="1000" y="475" />
            </Array>
          </mxGeometry>
        </mxCell>
        <mxCell id="123" value="" style="edgeStyle=elbowEdgeStyle;elbow=horizontal;rounded=0;fontColor=#000000;endArrow=none;endFill=0;strokeWidth=8;strokeColor=#23445D;" parent="1" source="44" target="50" edge="1">
          <mxGeometry width="100" height="100" relative="1" as="geometry">
            <mxPoint x="1190" y="335.00000000000045" as="sourcePoint" />
            <mxPoint x="1199.9999999999995" y="435" as="targetPoint" />
            <Array as="points">
              <mxPoint x="1200" y="385" />
            </Array>
          </mxGeometry>
        </mxCell>
        <mxCell id="124" value="" style="edgeStyle=elbowEdgeStyle;elbow=horizontal;rounded=0;fontColor=#000000;endArrow=none;endFill=0;strokeWidth=8;strokeColor=#23445D;" parent="1" source="44" target="51" edge="1">
          <mxGeometry width="100" height="100" relative="1" as="geometry">
            <mxPoint x="1200" y="335" as="sourcePoint" />
            <mxPoint x="1199.9999999999998" y="515" as="targetPoint" />
            <Array as="points">
              <mxPoint x="1200" y="425" />
            </Array>
          </mxGeometry>
        </mxCell>
        <mxCell id="125" value="" style="edgeStyle=elbowEdgeStyle;elbow=horizontal;rounded=0;fontColor=#000000;endArrow=none;endFill=0;strokeWidth=8;strokeColor=#23445D;" parent="1" source="44" target="54" edge="1">
          <mxGeometry width="100" height="100" relative="1" as="geometry">
            <mxPoint x="1200" y="335" as="sourcePoint" />
            <mxPoint x="1200" y="755" as="targetPoint" />
            <Array as="points">
              <mxPoint x="1200" y="545" />
            </Array>
          </mxGeometry>
        </mxCell>
        <mxCell id="126" value="" style="edgeStyle=elbowEdgeStyle;elbow=horizontal;rounded=0;fontColor=#000000;endArrow=none;endFill=0;strokeWidth=8;strokeColor=#23445D;" parent="1" source="44" target="53" edge="1">
          <mxGeometry width="100" height="100" relative="1" as="geometry">
            <mxPoint x="1200" y="335" as="sourcePoint" />
            <mxPoint x="1200" y="675" as="targetPoint" />
            <Array as="points">
              <mxPoint x="1200" y="505" />
            </Array>
          </mxGeometry>
        </mxCell>
        <mxCell id="127" value="" style="edgeStyle=elbowEdgeStyle;elbow=horizontal;rounded=0;fontColor=#000000;endArrow=none;endFill=0;strokeWidth=8;strokeColor=#23445D;" parent="1" source="44" target="52" edge="1">
          <mxGeometry width="100" height="100" relative="1" as="geometry">
            <mxPoint x="1200" y="335" as="sourcePoint" />
            <mxPoint x="1199.9999999999998" y="595" as="targetPoint" />
            <Array as="points">
              <mxPoint x="1200" y="475" />
            </Array>
          </mxGeometry>
        </mxCell>
        <mxCell id="133" value="Xây dựng hệ thống theo dõi" style="whiteSpace=wrap;rounded=1;fillColor=#12AAB5;strokeColor=none;shadow=1;fontColor=#FFFFFF;" parent="1" vertex="1">
          <mxGeometry x="1559.9999999999998" y="300.0000000000001" width="120" height="60" as="geometry" />
        </mxCell>
        <mxCell id="134" value=" Đánh giá tác động đến cộng đồng" style="whiteSpace=wrap;rounded=1;fillColor=#12AAB5;strokeColor=none;shadow=1;fontColor=#FFFFFF;" parent="1" vertex="1">
          <mxGeometry x="1759.9999999999998" y="300.0000000000001" width="120" height="60" as="geometry" />
        </mxCell>
        <mxCell id="135" value="Thiết lập hệ thống theo dõi tiến độ các hạng mục" style="whiteSpace=wrap;rounded=1;fillColor=#999999;strokeColor=none;shadow=1;fontColor=#FFFFFF;fontStyle=0" parent="1" vertex="1">
          <mxGeometry x="1559.9999999999998" y="400.0000000000001" width="120" height="60" as="geometry" />
        </mxCell>
        <mxCell id="136" value="Xây dựng các chỉ số đánh giá hiệu quả" style="whiteSpace=wrap;rounded=1;fillColor=#999999;strokeColor=none;shadow=1;fontColor=#FFFFFF;fontStyle=0" parent="1" vertex="1">
          <mxGeometry x="1560" y="480.0000000000001" width="120" height="60" as="geometry" />
        </mxCell>
        <mxCell id="137" value="Thu thập và phân tích dữ liệu hiệu quả" style="whiteSpace=wrap;rounded=1;fillColor=#999999;strokeColor=none;shadow=1;fontColor=#FFFFFF;fontStyle=0" parent="1" vertex="1">
          <mxGeometry x="1559.9999999999998" y="560.0000000000001" width="120" height="60" as="geometry" />
        </mxCell>
        <mxCell id="138" value="Báo cáo định kỳ về tiến độ và hiệu quả" style="whiteSpace=wrap;rounded=1;fillColor=#999999;strokeColor=none;shadow=1;fontColor=#FFFFFF;fontStyle=0" parent="1" vertex="1">
          <mxGeometry x="1560" y="640.0000000000001" width="120" height="60" as="geometry" />
        </mxCell>
        <mxCell id="140" value="Khảo sát và thu thập phản hồi từ cộng đồng" style="whiteSpace=wrap;rounded=1;fillColor=#999999;strokeColor=none;shadow=1;fontColor=#FFFFFF;fontStyle=0" parent="1" vertex="1">
          <mxGeometry x="1759.9999999999993" y="400.0000000000001" width="120" height="60" as="geometry" />
        </mxCell>
        <mxCell id="141" value="Đánh giá tác động tích cực của các hạng mục" style="whiteSpace=wrap;rounded=1;fillColor=#999999;strokeColor=none;shadow=1;fontColor=#FFFFFF;fontStyle=0" parent="1" vertex="1">
          <mxGeometry x="1759.9999999999995" y="480.0000000000001" width="120" height="60" as="geometry" />
        </mxCell>
        <mxCell id="142" value=" Lập báo cáo tổng kết tác động" style="whiteSpace=wrap;rounded=1;fillColor=#999999;strokeColor=none;shadow=1;fontColor=#FFFFFF;fontStyle=0" parent="1" vertex="1">
          <mxGeometry x="1759.9999999999995" y="560.0000000000001" width="120" height="60" as="geometry" />
        </mxCell>
        <mxCell id="143" value="Công khai báo cáo tác động với cộng đồng" style="whiteSpace=wrap;rounded=1;fillColor=#999999;strokeColor=none;shadow=1;fontColor=#FFFFFF;fontStyle=0" parent="1" vertex="1">
          <mxGeometry x="1759.9999999999995" y="640.0000000000001" width="120" height="60" as="geometry" />
        </mxCell>
        <mxCell id="145" value="" style="edgeStyle=elbowEdgeStyle;elbow=horizontal;rounded=0;fontColor=#000000;endArrow=none;endFill=0;strokeWidth=8;strokeColor=#23445D;" parent="1" source="133" target="135" edge="1">
          <mxGeometry width="100" height="100" relative="1" as="geometry">
            <mxPoint x="1540" y="330.00000000000045" as="sourcePoint" />
            <mxPoint x="1549.9999999999995" y="430" as="targetPoint" />
            <Array as="points">
              <mxPoint x="1540" y="380" />
            </Array>
          </mxGeometry>
        </mxCell>
        <mxCell id="146" value="" style="edgeStyle=elbowEdgeStyle;elbow=horizontal;rounded=0;fontColor=#000000;endArrow=none;endFill=0;strokeWidth=8;strokeColor=#23445D;" parent="1" source="133" target="136" edge="1">
          <mxGeometry width="100" height="100" relative="1" as="geometry">
            <mxPoint x="1550" y="330" as="sourcePoint" />
            <mxPoint x="1549.9999999999998" y="510" as="targetPoint" />
            <Array as="points">
              <mxPoint x="1540" y="420" />
            </Array>
          </mxGeometry>
        </mxCell>
        <mxCell id="148" value="" style="edgeStyle=elbowEdgeStyle;elbow=horizontal;rounded=0;fontColor=#000000;endArrow=none;endFill=0;strokeWidth=8;strokeColor=#23445D;" parent="1" source="133" target="138" edge="1">
          <mxGeometry width="100" height="100" relative="1" as="geometry">
            <mxPoint x="1550" y="330" as="sourcePoint" />
            <mxPoint x="1550" y="670" as="targetPoint" />
            <Array as="points">
              <mxPoint x="1540" y="500" />
            </Array>
          </mxGeometry>
        </mxCell>
        <mxCell id="149" value="" style="edgeStyle=elbowEdgeStyle;elbow=horizontal;rounded=0;fontColor=#000000;endArrow=none;endFill=0;strokeWidth=8;strokeColor=#23445D;" parent="1" source="133" target="137" edge="1">
          <mxGeometry width="100" height="100" relative="1" as="geometry">
            <mxPoint x="1550" y="330" as="sourcePoint" />
            <mxPoint x="1549.9999999999998" y="590" as="targetPoint" />
            <Array as="points">
              <mxPoint x="1540" y="470" />
            </Array>
          </mxGeometry>
        </mxCell>
        <mxCell id="150" value="" style="edgeStyle=elbowEdgeStyle;elbow=horizontal;rounded=0;fontColor=#000000;endArrow=none;endFill=0;strokeWidth=8;strokeColor=#23445D;" parent="1" source="134" target="140" edge="1">
          <mxGeometry width="100" height="100" relative="1" as="geometry">
            <mxPoint x="1730" y="330.00000000000045" as="sourcePoint" />
            <mxPoint x="1739.9999999999995" y="430" as="targetPoint" />
            <Array as="points">
              <mxPoint x="1740" y="380" />
            </Array>
          </mxGeometry>
        </mxCell>
        <mxCell id="151" value="" style="edgeStyle=elbowEdgeStyle;elbow=horizontal;rounded=0;fontColor=#000000;endArrow=none;endFill=0;strokeWidth=8;strokeColor=#23445D;" parent="1" source="134" target="141" edge="1">
          <mxGeometry width="100" height="100" relative="1" as="geometry">
            <mxPoint x="1740" y="330" as="sourcePoint" />
            <mxPoint x="1739.9999999999998" y="510" as="targetPoint" />
            <Array as="points">
              <mxPoint x="1740" y="420" />
            </Array>
          </mxGeometry>
        </mxCell>
        <mxCell id="153" value="" style="edgeStyle=elbowEdgeStyle;elbow=horizontal;rounded=0;fontColor=#000000;endArrow=none;endFill=0;strokeWidth=8;strokeColor=#23445D;" parent="1" source="134" target="143" edge="1">
          <mxGeometry width="100" height="100" relative="1" as="geometry">
            <mxPoint x="1740" y="330" as="sourcePoint" />
            <mxPoint x="1740" y="670" as="targetPoint" />
            <Array as="points">
              <mxPoint x="1740" y="500" />
            </Array>
          </mxGeometry>
        </mxCell>
        <mxCell id="154" value="" style="edgeStyle=elbowEdgeStyle;elbow=horizontal;rounded=0;fontColor=#000000;endArrow=none;endFill=0;strokeWidth=8;strokeColor=#23445D;" parent="1" source="134" target="142" edge="1">
          <mxGeometry width="100" height="100" relative="1" as="geometry">
            <mxPoint x="1740" y="330" as="sourcePoint" />
            <mxPoint x="1739.9999999999998" y="590" as="targetPoint" />
            <Array as="points">
              <mxPoint x="1740" y="470" />
            </Array>
          </mxGeometry>
        </mxCell>
        <mxCell id="221" value="" style="edgeStyle=elbowEdgeStyle;elbow=vertical;rounded=0;fontColor=#000000;endArrow=none;endFill=0;strokeWidth=8;strokeColor=#23445D;" parent="1" source="6" target="133" edge="1">
          <mxGeometry width="100" height="100" relative="1" as="geometry">
            <mxPoint x="1530" y="270" as="sourcePoint" />
            <mxPoint x="1630" y="170" as="targetPoint" />
          </mxGeometry>
        </mxCell>
        <mxCell id="222" value="" style="edgeStyle=elbowEdgeStyle;elbow=vertical;rounded=0;fontColor=#000000;endArrow=none;endFill=0;strokeWidth=8;strokeColor=#23445D;" parent="1" source="6" target="134" edge="1">
          <mxGeometry width="100" height="100" relative="1" as="geometry">
            <mxPoint x="1780" y="280" as="sourcePoint" />
            <mxPoint x="1880" y="180" as="targetPoint" />
          </mxGeometry>
        </mxCell>
        <mxCell id="229" value="" style="edgeStyle=elbowEdgeStyle;elbow=vertical;rounded=0;fontColor=#000000;endArrow=none;endFill=0;strokeWidth=8;strokeColor=#23445D;" parent="1" source="2" target="3" edge="1">
          <mxGeometry width="100" height="100" relative="1" as="geometry">
            <mxPoint x="540" y="140" as="sourcePoint" />
            <mxPoint x="640" y="40" as="targetPoint" />
          </mxGeometry>
        </mxCell>
        <mxCell id="230" value="" style="edgeStyle=elbowEdgeStyle;elbow=vertical;rounded=0;fontColor=#000000;endArrow=none;endFill=0;strokeWidth=8;strokeColor=#23445D;" parent="1" source="2" target="4" edge="1">
          <mxGeometry width="100" height="100" relative="1" as="geometry">
            <mxPoint x="550" y="150" as="sourcePoint" />
            <mxPoint x="650" y="50" as="targetPoint" />
          </mxGeometry>
        </mxCell>
        <mxCell id="231" value="" style="edgeStyle=elbowEdgeStyle;elbow=vertical;rounded=0;fontColor=#000000;endArrow=none;endFill=0;strokeWidth=8;strokeColor=#23445D;" parent="1" source="2" target="6" edge="1">
          <mxGeometry width="100" height="100" relative="1" as="geometry">
            <mxPoint x="560" y="160" as="sourcePoint" />
            <mxPoint x="660" y="60" as="targetPoint" />
          </mxGeometry>
        </mxCell>
      </root>
    </mxGraphModel>
  </diagram>
</mxfile>
